<svg t="1668827905953" class="icon" viewBox="0 0 1024 1024" version="1.1" xmlns="http://www.w3.org/2000/svg" p-id="3375" width="200" height="200"><path d="M232.2432 879.616A443.0848 443.0848 0 1 0 117.76 451.584a443.0848 443.0848 0 0 0 114.688 428.032z m0 0" fill="#5093FF" p-id="3376"></path><path d="M291.84 312.7808c-173.0048 173.056-149.504 476.9792-59.7504 566.784 81.408 81.408 393.728 113.2032 566.7328-59.8528s152.1664-474.3168 59.8016-566.7328C769.0752 163.1232 465.1008 139.776 292.096 312.832z m0 0" fill="#E1F1FF" p-id="3377"></path><path d="M373.248 394.24c-178.688 178.2272-202.0352 444.2624-150.9888 495.36s317.0816 27.5456 495.616-150.9376 205.4656-441.0368 150.9376-495.616c-56.32-56.32-316.8768-27.5968-495.5648 150.9376z m0 0" fill="#5093FF" p-id="3378"></path><path d="M479.5904 500.1728c-173.0048 173.0048-268.1344 358.4-247.296 379.392 21.76 21.8112 206.336-74.2912 379.392-247.296s268.9536-357.5808 247.1936-379.392c-21.0944-20.9408-206.336 74.2912-379.2896 247.2448z m0 0" fill="#E1F1FF" p-id="3379"></path><path d="M814.08 269.6704a37.0688 37.0688 0 0 0 27.648 11.9296 16.5376 16.5376 0 0 0 15.8208-15.8208 40.96 40.96 0 0 0-39.8336-39.8336 16.384 16.384 0 0 0-15.7696 15.7696 37.1712 37.1712 0 0 0 12.1344 27.904z m0 0" fill="#2765C1" p-id="3380"></path><path d="M827.5456 259.7888a14.5408 14.5408 0 0 0 20.48 0L923.904 184.32l-20.48-20.48-75.7248 75.776a14.5408 14.5408 0 0 0 0 20.48z m81.92-114.8416h29.3376V37.888a14.6944 14.6944 0 0 0-29.3376 0z m0 0" fill="#2765C1" p-id="3381"></path><path d="M887.7568 125.952a22.016 22.016 0 1 1-15.36 6.4 21.248 21.248 0 0 1 15.36-6.4m0-29.3376a50.3808 50.3808 0 0 0-36.1984 15.104 51.2 51.2 0 0 0 36.1984 87.6032 50.5856 50.5856 0 0 0 36.096-15.0016 51.2 51.2 0 0 0-36.096-87.6032z m0 0" fill="#2765C1" p-id="3382"></path><path d="M519.68 117.76A432.64 432.64 0 1 1 87.04 550.4 433.152 433.152 0 0 1 519.68 117.76m0-40.96a473.6 473.6 0 1 0 473.6 473.6A473.6 473.6 0 0 0 519.68 76.8z" fill="#2765C1" p-id="3383"></path><path d="M332.8 257.4848a23.04 23.04 0 0 1-19.0464-38.5536C399.36 126.1056 524.9024 151.808 530.2784 152.9344a23.0912 23.0912 0 0 1-9.6256 45.1072c-1.792-0.3584-105.9328-20.7872-173.2608 52.1216A22.9376 22.9376 0 0 1 332.8 257.4848z m0 0M567.808 183.3472a21.6576 21.6576 0 0 0 12.6976 17.7664 22.5792 22.5792 0 0 0 22.016-1.9968 21.6064 21.6064 0 0 0-3.3792-37.5296 22.4256 22.4256 0 0 0-22.0672 1.9968 21.6576 21.6576 0 0 0-9.2672 19.7632z m0 0" fill="#2765C1" p-id="3384"></path></svg>